<svg width="704" height="355" viewBox="0 0 704 355" fill="none" xmlns="http://www.w3.org/2000/svg">
<path d="M595.741 160.079C609.241 164.562 684.741 207.579 691.741 211.579C698.741 215.579 695.741 222.079 695.741 222.079L686.741 238.079L660.241 286.579C656.741 291.579 649.241 302.079 632.741 298.079L575.741 284.579C575.741 284.579 565.241 280.579 565.741 290.079L567.741 321.079C568.741 326.579 563.241 340.079 548.741 340.579L277.241 347.079C272.241 347.079 270.241 347.079 267.741 339.579C265.741 326.579 252.241 308.079 225.741 309.079C225.741 309.079 146.741 322.079 50.7407 293.579C43.2407 291.079 34.7407 287.079 43.2407 275.079L60.7407 249.079C64.2407 243.579 62.2407 239.579 54.7407 234.079L12.7407 195.079C12.7407 195.079 6.74074 190.079 8.24074 178.579C8.24074 178.579 12.2407 142.579 13.7407 136.579C19.7407 105.579 37.2407 87.5793 41.2407 56.5793C42.7407 49.5793 42.7407 45.0793 51.2407 45.0793C51.2407 45.0793 69.7407 48.0793 87.2407 32.0793C87.2407 32.0793 124.741 -8.92069 171.241 16.0793L211.241 43.0793C217.741 48.0793 231.241 57.5793 246.741 88.0793C250.934 98.0793 280.241 205.079 380.241 199.579L427.741 195.079C436.241 194.079 438.741 195.079 446.741 186.079L461.741 165.579C463.741 163.079 466.741 157.079 476.741 157.579C476.741 157.579 548.741 151.579 554.241 151.079C562.741 150.079 575.741 151.579 595.741 160.079Z" stroke="white" stroke-width="15"/>
</svg>
