<svg width="582" height="327" viewBox="0 0 582 327" fill="none" xmlns="http://www.w3.org/2000/svg">
<path d="M536.931 318.819C535.431 320.819 532.431 323.319 527.431 320.819L266.431 168.319L176.431 142.819C176.431 142.819 169.431 140.819 162.931 143.819L138.931 151.319C138.931 151.319 133.431 153.819 127.431 152.319L78.9313 143.819C78.9313 143.819 72.9313 142.819 68.4313 143.819L26.4313 150.319C20.0247 151.798 19.4469 148.904 18.4741 144.033L18.4313 143.819L5.43127 63.8191C4.93123 60.8191 3.9313 59.8191 8.9313 57.8191C21.4313 50.8191 45.4313 27.3191 45.4313 27.3191C49.9313 23.3191 52.4313 22.3191 57.4313 20.3191L94.4313 6.31912C98.9313 4.81915 104.931 4.31912 111.431 6.31912C111.431 6.31912 162.431 29.8191 187.431 47.3191C190.431 49.3191 193.931 51.3191 191.931 54.8191L186.931 63.3191C181.931 71.8191 194.931 75.8191 193.431 82.3191C191.431 86.8191 198.431 85.8191 193.931 92.3191L169.931 126.319C165.931 133.819 168.431 136.819 176.431 136.319L261.431 160.319C271.931 164.819 266.431 143.819 279.931 148.819L313.431 162.319L348.931 182.819C352.931 184.319 353.431 182.319 356.431 178.819L380.931 137.319C382.431 134.819 384.931 133.319 389.931 136.319C403.431 144.319 517.931 206.319 573.431 242.819C577.431 246.319 577.431 247.319 574.431 252.319C569.431 262.319 539.431 315.819 536.931 318.819Z" stroke="white" stroke-width="10"/>
</svg>
