<svg width="509" height="335" viewBox="0 0 509 335" fill="none" xmlns="http://www.w3.org/2000/svg">
<path d="M14.5 327.5H462.5L477.5 323.5C482.5 322.167 493.7 318.3 498.5 313.5C503.3 308.7 500.5 303.833 498.5 302C453.167 228.833 363 75 345.5 48C331.9 20.4 311.5 37.8333 303 50C297.76 57.5 284 95.5 280 105.5C277 135.5 294.5 155.5 313.5 162.5C324 165.5 336.5 170 347.5 175.5C391 204.5 377 245.5 362.5 245.5C353 246 127 244.5 127 244.5C113.5 243.5 87 241 80.5 240C74.5 240 75.6667 237 77 235.5C80.1667 230.667 88.3 219.1 95.5 211.5C104 205 115 206 122 206C152 209 213 217 236 220C256.4 217.2 252.167 207.833 247.5 203L182 155.5C171.5 144.5 173.5 138 174.5 120C177 104.5 172.5 94 164.5 89C157.167 86.1667 145.1 80.7 141.5 79.5C137.9 78.3 117.5 61 110 53C100 42.3333 79 15.5 70.5 9.49998C67.9165 7.67635 64.1596 7.97006 61.5 8.49998C55 9.49998 52 12 51 16.5L18 235.5V250C21.5 259.833 29.1 280.6 31.5 285C33.9 289.4 30.5 293.167 28.5 294.5C23.5 301 13 313.5 8.5 319.5C7.3 325.9 11.1667 327.5 14.5 327.5Z" stroke="white" stroke-width="15"/>
</svg>
