<svg width="580" height="347" viewBox="0 0 580 347" fill="none" xmlns="http://www.w3.org/2000/svg">
<path d="M467.624 314.268L420.124 317.268C398.124 319.768 386.124 329.768 386.124 329.768C386.124 329.768 375.124 337.768 364.124 333.268L341.624 325.268C300.624 309.768 289.624 375.268 254.124 317.768C254.124 317.768 245.624 301.768 234.124 296.768C234.124 296.768 85.1242 225.768 24.6241 187.268C2.62423 173.768 -3.37579 146.268 19.6241 130.768L37.1241 122.268C42.1241 120.268 57.1241 108.768 57.1241 108.768L109.624 60.2684C121.624 47.2684 91.6241 42.2684 103.624 27.7684L119.624 13.2684C119.624 13.2684 140.124 -0.231569 153.124 7.26843L280.124 98.7684C305.624 120.268 271.124 164.768 297.624 195.268L336.624 242.268C339.124 246.768 339.624 253.268 333.624 256.268L303.124 265.768C297.624 268.268 294.124 277.268 301.624 280.768C314.624 286.768 336.624 291.768 346.624 292.268C349.624 292.768 356.624 292.268 363.124 286.768L503.124 121.268C508.124 114.268 505.624 94.7684 491.124 92.7684C491.124 92.7684 482.124 91.7684 474.624 91.7684C444.124 91.2684 446.624 49.2684 477.124 56.7684L516.124 74.2684C532.124 82.7684 554.624 97.7684 560.624 139.268L574.124 254.768C575.124 269.268 572.124 285.268 553.624 294.268L490.624 311.268C488.624 311.768 477.124 313.768 467.624 314.268Z" stroke="white" stroke-width="10"/>
</svg>
