<svg width="720" height="260" viewBox="0 0 720 260" fill="none" xmlns="http://www.w3.org/2000/svg">
<path d="M422.376 243.499C418.876 251.999 407.376 255.499 395.376 253.999C384.876 252.999 314.876 234.499 249.876 191.999L199.876 150.499C189.876 140.499 210.376 135.999 194.876 117.999C114.376 43.4986 67.3762 26.9986 13.3762 18.9986C-1.12386 17.4986 4.37618 -1.00141 20.8761 6.99857L44.8761 14.9986C54.8761 16.4986 56.8761 16.4986 68.8761 14.9986C116.376 15.9986 120.876 16.9986 179.376 20.4986C179.376 20.4986 196.376 22.9986 200.376 23.9986L434.876 75.4986C449.876 77.9986 435.376 89.4986 449.876 91.9986L601.376 124.999C605.376 125.999 631.376 134.499 644.376 142.499L676.376 162.999C679.876 164.999 682.876 165.499 685.376 162.999L695.876 151.999C703.376 144.999 721.376 153.499 712.376 169.499C687.376 203.499 680.876 208.499 618.876 235.999C602.376 242.499 603.376 221.999 587.876 226.999L546.376 237.499C527.876 243.499 525.376 259.499 490.876 247.999L440.376 224.999C433.376 221.499 427.376 221.999 424.876 234.499L422.376 243.499Z" stroke="white" stroke-width="10"/>
</svg>
