<svg width="721" height="409" viewBox="0 0 721 409" fill="none" xmlns="http://www.w3.org/2000/svg">
<path d="M681.568 6.78382C685.568 5.28382 696.568 5.2838 700.068 12.7838C701.068 15.2838 713.568 42.7838 713.568 42.7838C715.568 48.7838 713.568 53.7838 705.068 58.2838L660.068 79.2838C652.568 83.2838 643.568 91.2838 639.068 95.7838L579.068 157.784C575.068 162.284 565.068 170.784 546.068 181.284L483.568 210.784C465.068 217.784 479.068 201.284 460.568 201.284L295.068 207.284C284.568 205.784 273.068 194.284 266.068 207.284L250.068 233.784C247.568 240.784 249.068 244.284 250.068 248.284L264.568 305.784C266.568 310.784 269.068 328.284 266.068 339.784C264.068 351.284 250.068 378.784 250.068 378.784C246.068 386.284 240.068 392.784 223.068 389.784L174.068 381.784C162.568 380.284 140.068 381.284 127.568 383.784L20.5679 401.784C20.5679 401.784 -4.4321 387.284 11.0679 375.284L74.5679 317.784C78.5679 314.284 79.8966 309.784 79.5679 302.784C78.0679 293.784 68.0679 285.784 74.5679 266.784C81.0679 245.784 125.568 127.284 125.568 127.284C126.568 124.784 130.068 114.784 139.568 110.284L171.068 93.2838C174.568 90.2838 179.568 85.2838 179.568 75.2838C179.568 75.2838 179.568 65.7838 188.568 62.2838L227.568 51.7838C281.568 42.7838 317.568 40.7838 317.568 40.7838C360.568 38.7838 406.568 57.7838 447.568 57.7838L553.068 54.7838C565.568 54.7838 581.568 48.7838 589.568 45.2838C589.568 45.2838 676.068 9.28382 681.568 6.78382Z" stroke="white" stroke-width="15"/>
</svg>
