<svg width="737" height="287" viewBox="0 0 737 287" fill="none" xmlns="http://www.w3.org/2000/svg">
<path d="M471.378 269.5C359.878 298.5 329.878 253.5 275.878 245H131.878C116.378 245 95.3781 240.5 77.8781 234C69.8781 231 62.3781 230 50.8781 231C-39.6221 245 32.8781 136 87.8781 177L105.378 191C118.378 200.5 124.878 202.5 138.878 198L164.878 184.5C179.378 178 189.878 174 211.378 182.5C211.378 182.5 302.878 237.5 333.878 248C348.878 254 437.378 255 433.378 198C431.378 184 433.378 174 450.878 163C461.378 156 471.878 147 453.878 135L275.878 33C256.378 24 223.878 15 174.878 46C159.878 54 146.378 57.5 129.878 48L95.3781 24C90.8781 17.5 91.8781 9.5 105.378 8L715.879 33C723.379 33.5 729.379 36.5 726.879 42.5L718.879 66.5C711.879 82 735.879 77.9999 726.879 91.4999L715.879 104.5C710.379 112 709.879 115 685.379 115C660.879 111.5 642.379 133.5 662.379 152.5C678.879 164 703.379 168.5 683.379 183.5C632.379 210 569.878 239 471.378 269.5Z" stroke="white" stroke-width="15"/>
</svg>
