<svg width="708" height="293" viewBox="0 0 708 293" fill="none" xmlns="http://www.w3.org/2000/svg">
<path d="M401.453 172.548L350.953 138.048C338.453 130.048 340.953 145.548 332.953 140.548L326.953 136.048C322.953 132.548 324.953 125.548 319.953 121.548L221.453 44.5478C217.453 42.0478 211.453 40.5478 202.953 42.0478C189.953 44.5478 165.453 55.5478 139.953 80.0478C129.453 91.5478 139.453 103.548 132.453 116.048L92.4533 173.048C86.4534 182.548 75.9534 164.048 69.4533 176.548C69.4533 176.548 57.9534 195.048 52.4533 210.548C52.4533 210.548 46.4534 234.548 48.4533 253.548C48.4533 253.548 50.4534 263.048 52.4533 266.548C55.4534 271.798 58.4534 289.048 42.9534 283.548C29.4534 277.548 10.4533 261.048 10.4533 261.048C6.95339 257.548 6.45336 254.048 13.9533 247.548C13.9533 247.548 18.4534 243.548 19.9534 237.548C19.9534 237.548 22.4533 223.548 23.9533 218.548C23.9533 218.548 42.9533 136.048 128.953 52.5478C138.953 41.5478 158.453 30.0478 174.453 22.0478L188.453 13.5478C196.453 7.04775 199.953 6.54776 205.453 10.5478C205.453 10.5478 239.175 36.7054 261.453 52.5478C291.774 74.1093 321.453 84.0478 340.953 105.048C356.953 113.548 389.453 121.548 401.453 131.048L432.953 154.548C432.953 154.548 501.953 197.548 509.953 115.048C511.953 105.048 505.453 92.0478 520.453 87.0478L545.453 79.0478C561.453 75.5478 640.953 66.5478 640.953 66.5478C647.453 66.5478 663.453 74.5478 647.453 92.0478C647.453 92.0478 637.453 102.548 637.453 118.548L632.953 131.048C630.453 135.048 630.953 142.048 637.453 142.048C642.953 141.548 645.453 138.548 644.453 131.048L647.453 108.048C648.453 104.048 655.453 96.5478 663.453 100.048L696.453 118.548C700.953 123.048 700.453 126.548 696.453 131.048L644.453 177.048C638.953 182.548 571.453 232.548 517.953 217.548L443.453 192.048C438.453 190.548 416.453 181.548 401.453 172.548Z" stroke="white" stroke-width="15"/>
</svg>
