<svg width="665" height="392" viewBox="0 0 665 392" fill="none" xmlns="http://www.w3.org/2000/svg">
<path d="M426.938 171.151L522.438 91.6508C522.438 91.6508 540.938 75.9708 547.938 70.6508C560.438 61.1508 610.938 27.2097 616.438 23.6508C621.938 20.092 642.938 8.58191 645.438 8.15085C652.438 6.9439 657.438 13.1508 656.438 20.6508C656.438 20.6508 654.438 26.6508 652.438 35.1508C645.938 59.1508 642.938 75.6508 626.938 101.651C617.544 116.915 581.438 147.651 560.438 159.651C525.938 175.151 502.438 162.151 470.938 163.651C464.938 163.151 447.438 176.151 447.438 176.151C432.938 185.151 443.438 201.151 423.938 208.651C416.938 212.151 378.438 206.903 347.438 242.151C342.438 248.151 326.938 276.151 295.438 286.651C289.438 288.151 271.938 288.151 236.938 326.151C230.938 332.651 192.938 359.151 176.438 344.651C166.438 337.151 168.938 325.651 144.438 336.151C133.438 337.151 109.438 334.651 92.9377 337.151C81.4377 339.151 62.9377 349.151 49.4377 372.651C43.6044 377.984 29.7377 387.551 16.9377 383.151C4.13773 378.751 5.93772 359.651 16.9377 354.651C26.4377 349.151 95.9377 319.151 95.9377 319.151L118.438 311.651C136.938 305.151 146.938 312.651 168.938 304.651C185.438 303.151 184.438 323.151 206.438 321.151C216.938 319.151 229.938 313.151 229.938 313.151C240.938 309.151 237.438 294.151 243.938 288.151C247.438 285.651 259.938 276.151 259.938 276.151C275.938 268.651 281.938 286.651 307.938 269.151C320.438 258.151 313.938 245.651 318.438 241.151C322.938 236.651 385.438 202.651 390.938 200.151C396.438 198.651 405.604 198.651 409.438 198.651C415.438 198.651 422.638 199.951 425.438 193.151C428.238 186.351 415.938 185.151 418.438 180.151C420.938 175.151 426.938 171.151 426.938 171.151Z" stroke="white" stroke-width="15"/>
</svg>
