<svg width="736" height="228" viewBox="0 0 736 228" fill="none" xmlns="http://www.w3.org/2000/svg">
<path d="M676.59 220H126.09C82.0903 217 126.09 173 82.0903 155L37.0904 135C-9.90942 116.5 -6.90949 16.5 98.0904 8L234.59 8.5C266.59 13.5 269.59 70 211.09 84L109.09 84.5C91.0903 84.5 83.5903 106.5 97.0903 117.5L162.09 161C168.09 165.5 188.59 176.5 211.09 176.5L267.09 177.5C302.09 172 277.091 140 294.091 115.5L354.091 31.5C365.591 16.5 392.091 14 407.591 22L638.09 159.5C645.09 163 668.59 156.5 659.59 123C649.59 99.5 644.09 92 603.59 79C574.09 64 584.59 17 621.59 22L700.09 48C702.59 49 708.59 51 707.09 62L704.09 115.5C704.09 132 727.59 117.5 727.59 136L726.59 178.5C726.59 184.5 720.09 217 676.59 220Z" stroke="white" stroke-width="15"/>
</svg>
